<?xml version="1.0" encoding="utf-8"?>
<!-- Generator: Adobe Illustrator 16.0.3, SVG Export Plug-In . SVG Version: 6.00 Build 0)  -->
<!DOCTYPE svg PUBLIC "-//W3C//DTD SVG 1.1//EN" "http://www.w3.org/Graphics/SVG/1.1/DTD/svg11.dtd">
<svg version="1.1" id="Layer_1" xmlns="http://www.w3.org/2000/svg" xmlns:xlink="http://www.w3.org/1999/xlink" x="0px" y="0px"
	 width="250px" height="128px" viewBox="0 0 250 128" enable-background="new 0 0 250 128" xml:space="preserve">
<g>
	<path fill="#FFFFFF" d="M151.398,6.011h92.931c0.015,0.326,0.041,0.624,0.041,0.923c0.003,21.99-0.002,43.979,0.005,65.971
		c0.001,5.531-0.89,10.864-3.466,15.827c-2.353,4.529-5.789,8.146-9.672,11.368c-5.318,4.409-11.207,7.986-17.067,11.601
		c-5.26,3.24-10.51,6.489-15.781,9.71c-0.24,0.148-0.716,0.189-0.94,0.05c-8.495-5.269-17.009-10.511-25.445-15.877
		c-4.015-2.554-7.773-5.473-11.159-8.847c-5.704-5.684-8.854-12.512-9.302-20.563c-0.075-1.349-0.137-2.7-0.137-4.049
		c-0.009-21.654-0.007-43.304-0.007-64.958V6.011z"/>
	<path fill="#FFFFFF" d="M0,127.895V0.222h1.2c47.529,0,95.058,0.3,142.583,0c34.999-0.222,69.994,0.17,104.991,0
		c0.342-0.001,0.684,0,1.205,0c0,0.837,0-0.787,0,0c-0.003,23.392-0.009,49.196-0.005,72.586c0,4.168-0.42,8.277-1.57,12.298
		c-1.588,5.559-4.479,10.366-8.416,14.563c-4.621,4.927-10.063,8.836-15.718,12.451c-4.938,3.156-9.953,6.19-14.932,9.285
		c-3.147,1.957-6.313,3.884-9.418,5.907c-1.064,0.694-2.108,0.808-3.282,0.581c-0.36-0.07-0.739,0-1.11,0
		c-64.771-0.003-129.542,0-194.314,0H0z"/>
	<rect x="1.64" y="2.106" fill="#174275" width="196.25" height="124.039"/>
	<rect x="1.642" y="64.222" fill="#174275" width="195.292" height="61.582"/>
	<path fill="#FFFFFF" d="M18.64,84.036c0,3.359-1.586,4.685-4.447,4.685h-0.994c-2.698,0-4.212-0.97-4.212-3.454v-2.2h3.101v1.23
		c0,1.467,0.402,1.704,1.23,1.704h0.78c0.827,0,1.371-0.189,1.371-1.774V83.09c0-0.828-0.331-1.373-1.324-1.609l-1.584-0.378
		C10.217,80.533,9.2,79.446,9.2,76.347v-0.875c0-2.816,1.538-4.259,4.283-4.259h0.355c2.673,0,4.377,1.253,4.377,3.454v1.751h-3.1
		v-0.969c0-1.113-0.354-1.516-1.229-1.516H13.53c-0.876,0-1.185,0.379-1.185,1.75v0.545c0,1.277,0.19,1.607,1.208,1.868l1.349,0.356
		c2.957,0.779,3.737,1.82,3.737,4.778V84.036z"/>
	<path fill="#FFFFFF" d="M19.183,88.484l4.189-17.035h3.832l4.164,17.035H28.15l-0.758-3.454h-4.258L22.4,88.484H19.183z
		 M23.773,82.096h3.005l-1.49-6.956L23.773,82.096z"/>
	<polygon fill="#FFFFFF" points="32.621,88.484 32.621,71.449 41.445,71.449 41.445,74.193 35.863,74.193 35.863,79.092 
		40.168,79.092 40.168,81.836 35.863,81.836 35.863,88.484 	"/>
	<polygon fill="#FFFFFF" points="51.949,88.484 43.125,88.484 43.125,71.449 51.949,71.449 51.949,74.193 46.366,74.193 
		46.366,78.381 50.673,78.381 50.673,81.127 46.366,81.127 46.366,85.739 51.949,85.739 	"/>
	<polygon fill="#FFFFFF" points="57.72,88.484 57.72,71.449 60.963,71.449 60.963,78.381 64.747,78.381 64.747,71.449 
		67.965,71.449 67.965,88.484 64.747,88.484 64.747,81.127 60.963,81.127 60.963,88.484 	"/>
	<path fill="#FFFFFF" d="M69.241,88.484l4.188-17.035h3.833l4.164,17.035h-3.217l-0.757-3.454h-4.259l-0.733,3.454H69.241z
		 M73.831,82.096h3.005l-1.492-6.956L73.831,82.096z"/>
	<path fill="#FFFFFF" d="M82.679,88.484V71.449h4.401c3.689,0,5.109,1.728,5.109,4.638v2.104c0,1.729-0.615,3.005-2.081,3.668
		l3.523,6.625h-3.62l-3.004-6.082h-1.089v6.082H82.679z M85.919,74.193v5.466h1.23c1.16,0,1.822-0.64,1.822-2.011v-1.372
		c0-1.421-0.662-2.083-1.798-2.083H85.919z"/>
	<path fill="#FFFFFF" d="M94.814,88.484V71.449h4.283c3.076,0,5.04,1.206,5.04,3.999v1.087c0,1.23-0.639,2.082-1.703,2.579
		c1.632,0.474,2.342,1.538,2.342,3.194v2.153c0,2.745-1.988,4.022-5.088,4.022H94.814z M98.057,74.005v4.353h1.041
		c1.277,0,1.821-0.709,1.821-1.915v-0.521c0-1.325-0.52-1.917-1.821-1.917H98.057z M98.057,80.723v5.206h1.632
		c1.161,0,1.869-0.639,1.869-2.012v-1.442c0-1.207-0.708-1.752-1.869-1.752H98.057z"/>
	<path fill="#FFFFFF" d="M116.935,75.14v9.653c0,2.484-1.963,3.927-5.109,3.927c-3.17,0-5.136-1.442-5.136-3.927V75.14
		c0-2.484,1.966-3.927,5.136-3.927C114.972,71.213,116.935,72.655,116.935,75.14 M109.932,75.779v8.374c0,1.278,0.592,1.8,1.894,1.8
		c1.276,0,1.892-0.521,1.892-1.8v-8.374c0-1.277-0.616-1.799-1.892-1.799C110.524,73.98,109.932,74.502,109.932,75.779"/>
	<path fill="#FFFFFF" d="M119.442,88.484V71.449h4.401c3.69,0,5.11,1.728,5.11,4.638v2.104c0,1.729-0.615,3.005-2.081,3.668
		l3.524,6.625h-3.62l-3.004-6.082h-1.089v6.082H119.442z M122.683,74.193v5.466h1.23c1.16,0,1.822-0.64,1.822-2.011v-1.372
		c0-1.421-0.662-2.083-1.798-2.083H122.683z"/>
	<path fill="#FFFFFF" d="M14.288,110.889c1.04,0,1.678-0.448,1.678-1.515v-2.105h3.053v2.697c0,2.341-1.916,3.689-4.92,3.689
		c-2.911,0-4.756-1.349-4.756-3.689V99.84c0-2.342,1.917-3.691,4.945-3.691c2.885,0,4.731,1.35,4.731,3.691v2.697h-3.053v-2.106
		c0-1.04-0.638-1.514-1.678-1.514c-1.161,0-1.703,0.474-1.703,1.514v8.943C12.584,110.44,13.127,110.889,14.288,110.889"/>
	<polygon fill="#FFFFFF" points="30.137,113.419 21.313,113.419 21.313,96.386 30.137,96.386 30.137,99.131 24.555,99.131 
		24.555,103.317 28.86,103.317 28.86,106.063 24.555,106.063 24.555,110.677 30.137,110.677 	"/>
	<path fill="#FFFFFF" d="M32.194,113.419V96.386h4.402c3.689,0,5.109,1.727,5.109,4.637v2.106c0,1.727-0.615,3.004-2.081,3.667
		l3.524,6.623h-3.621l-3.004-6.08h-1.088v6.08H32.194z M35.436,99.131v5.465h1.23c1.16,0,1.822-0.64,1.822-2.012v-1.373
		c0-1.419-0.663-2.08-1.799-2.08H35.436z"/>
	<polygon fill="#FFFFFF" points="46.177,113.419 46.177,99.131 42.865,99.131 42.865,96.386 52.706,96.386 52.706,99.131 
		49.417,99.131 49.417,113.419 	"/>
	<rect x="54.267" y="96.386" fill="#FFFFFF" width="3.243" height="17.032"/>
	<polygon fill="#FFFFFF" points="60.157,113.419 60.157,96.386 68.981,96.386 68.981,99.131 63.399,99.131 63.399,104.028 
		67.705,104.028 67.705,106.771 63.399,106.771 63.399,113.419 	"/>
	<rect x="70.66" y="96.386" fill="#FFFFFF" width="3.242" height="17.032"/>
	<path fill="#FFFFFF" d="M81.331,110.889c1.042,0,1.68-0.448,1.68-1.515v-2.105h3.052v2.697c0,2.341-1.915,3.689-4.921,3.689
		c-2.91,0-4.756-1.349-4.756-3.689V99.84c0-2.342,1.917-3.691,4.945-3.691c2.886,0,4.732,1.35,4.732,3.691v2.697H83.01v-2.106
		c0-1.04-0.638-1.514-1.68-1.514c-1.159,0-1.703,0.474-1.703,1.514v8.943C79.628,110.44,80.172,110.889,81.331,110.889"/>
	<path fill="#FFFFFF" d="M86.843,113.419l4.187-17.033h3.834l4.164,17.033h-3.218l-0.757-3.453h-4.258l-0.734,3.453H86.843z
		 M91.433,107.032h3.005l-1.49-6.956L91.433,107.032z"/>
	<polygon fill="#FFFFFF" points="101.583,113.419 101.583,99.131 98.271,99.131 98.271,96.386 108.112,96.386 108.112,99.131 
		104.824,99.131 104.824,113.419 	"/>
	<rect x="109.673" y="96.386" fill="#FFFFFF" width="3.242" height="17.032"/>
	<path fill="#FFFFFF" d="M125.642,100.076v9.653c0,2.482-1.963,3.926-5.109,3.926c-3.171,0-5.136-1.443-5.136-3.926v-9.653
		c0-2.484,1.964-3.928,5.136-3.928C123.679,96.148,125.642,97.592,125.642,100.076 M118.64,100.714v8.376
		c0,1.278,0.591,1.799,1.893,1.799c1.276,0,1.892-0.521,1.892-1.799v-8.376c0-1.276-0.615-1.797-1.892-1.797
		C119.23,98.917,118.64,99.438,118.64,100.714"/>
	<polygon fill="#FFFFFF" points="128.148,113.419 128.148,96.386 130.775,96.386 135.695,106.015 136.192,107.269 136.169,105.92 
		136.169,96.386 139.008,96.386 139.008,113.419 136.381,113.419 131.532,103.861 130.94,102.37 130.988,103.814 130.988,113.419 	
		"/>
	<path fill="#174275" d="M147.498,2.106h100.776c0.016,0.321,0,0.616,0,0.912c0.002,23.317-0.004,46.635,0,69.952
		c0.001,5.928-0.949,11.65-3.6,17.012c-2.296,4.643-5.621,8.472-9.482,11.859c-5.178,4.543-10.956,8.239-16.802,11.839
		c-6.525,4.021-13.043,8.048-19.533,12.126c-0.746,0.47-1.216,0.441-1.924-0.002c-8.634-5.41-17.321-10.739-25.928-16.197
		c-4.688-2.972-9.115-6.308-13.059-10.252c-6.368-6.365-9.82-14.024-10.308-23.013c-0.077-1.489-0.136-2.981-0.136-4.473
		c-0.008-22.867-0.006-45.732-0.006-68.601V2.106z M151.398,6.011v1.155c0,21.654-0.002,43.304,0.007,64.958
		c0,1.349,0.062,2.7,0.137,4.049c0.447,8.052,3.598,14.88,9.302,20.563c3.386,3.374,7.145,6.293,11.159,8.847
		c8.437,5.366,16.95,10.608,25.445,15.877c0.225,0.14,0.7,0.099,0.94-0.05c5.271-3.221,10.521-6.47,15.781-9.71
		c5.86-3.614,11.749-7.191,17.067-11.601c3.883-3.223,7.319-6.839,9.672-11.368c2.576-4.963,3.467-10.296,3.466-15.827
		c-0.007-21.992-0.002-43.981-0.005-65.971c0-0.299-0.026-0.597-0.041-0.923H151.398z"/>
	<path fill="#FFFFFF" d="M151.398,6.011h92.931c0.015,0.326,0.041,0.624,0.041,0.923c0.003,21.99-0.002,43.979,0.005,65.971
		c0.001,5.531-0.89,10.864-3.466,15.827c-2.353,4.529-5.789,8.146-9.672,11.368c-5.318,4.409-11.207,7.986-17.067,11.601
		c-5.26,3.24-10.51,6.489-15.781,9.71c-0.24,0.148-0.716,0.189-0.94,0.05c-8.495-5.269-17.009-10.511-25.445-15.877
		c-4.015-2.554-7.773-5.473-11.159-8.847c-5.704-5.684-8.854-12.512-9.302-20.563c-0.075-1.349-0.137-2.7-0.137-4.049
		c-0.009-21.654-0.007-43.304-0.007-64.958V6.011z"/>
	<path fill-rule="evenodd" clip-rule="evenodd" fill="#046699" d="M170.743,94.771c0.358,0.221,0.875,0.328,1.39,0.328
		c0.567,0,1.03-0.107,1.443-0.328c0.413-0.219,0.619-0.552,0.619-0.99v-5.938h2.527c1.961,0,3.51-0.494,4.644-1.54
		c1.186-1.044,1.753-2.638,1.753-4.837v-0.108c0-2.199-0.567-3.793-1.65-4.836c-1.135-0.991-2.63-1.485-4.488-1.485h-5.362
		c-0.413,0-0.774,0.112-1.083,0.386c-0.258,0.219-0.413,0.548-0.413,0.879v17.479C170.122,94.22,170.329,94.553,170.743,94.771
		 M174.195,78.773h2.527c1.6,0,2.375,0.935,2.375,2.748v0.277c0,1.867-0.775,2.747-2.375,2.747h-2.527V78.773z"/>
	<path fill-rule="evenodd" clip-rule="evenodd" fill="#046699" d="M185.431,94.785c0.414,0.219,0.877,0.331,1.442,0.331
		c0.519,0,1.033-0.112,1.393-0.331c0.413-0.22,0.619-0.548,0.619-0.991V87.14h1.7l3.561,7.371c0.258,0.493,0.721,0.768,1.285,0.768
		c0.621,0,1.189-0.219,1.756-0.713c0.515-0.494,0.772-0.992,0.772-1.54c0-0.165,0-0.332-0.103-0.498l-3.146-6.104
		c2.063-0.826,3.146-2.693,3.146-5.501c0-3.962-2.165-5.886-6.393-5.886h-5.362c-0.362,0-0.671,0.111-0.93,0.386
		c-0.206,0.219-0.307,0.552-0.307,0.879v17.493C184.865,94.237,185.018,94.565,185.431,94.785 M188.885,78.776h2.579
		c0.775,0,1.341,0.22,1.754,0.605c0.358,0.387,0.564,1.046,0.564,1.925c0,0.88-0.206,1.54-0.564,1.925
		c-0.413,0.387-0.979,0.606-1.754,0.606h-2.579V78.776z"/>
	<path fill-rule="evenodd" clip-rule="evenodd" fill="#046699" d="M200.483,94.771c0.412,0.22,0.877,0.327,1.442,0.327
		c0.57,0,1.033-0.107,1.396-0.327c0.41-0.219,0.617-0.548,0.617-0.99V76.301c0-0.44-0.207-0.714-0.617-0.935
		c-0.362-0.219-0.825-0.33-1.396-0.33c-0.565,0-1.03,0.111-1.442,0.33c-0.414,0.221-0.57,0.494-0.57,0.935V93.78
		C199.913,94.223,200.069,94.552,200.483,94.771"/>
	<path fill-rule="evenodd" clip-rule="evenodd" fill="#046699" d="M205.495,77.071l4.79,16.779c0.151,0.494,0.461,0.825,0.976,1.099
		c0.464,0.221,1.028,0.332,1.649,0.332c0.667,0,1.233-0.111,1.696-0.332c0.515-0.273,0.823-0.604,0.979-1.099l4.788-16.779
		c0-0.166,0.051-0.22,0.051-0.274c0-0.496-0.308-0.937-0.876-1.264c-0.515-0.332-1.133-0.497-1.696-0.497
		c-0.773,0-1.188,0.22-1.339,0.771l-3.604,14.137l-3.604-14.137c-0.105-0.551-0.566-0.771-1.288-0.771
		c-0.619,0-1.185,0.165-1.75,0.497c-0.565,0.327-0.823,0.768-0.823,1.264C205.444,76.852,205.444,76.905,205.495,77.071"/>
	<path fill-rule="evenodd" clip-rule="evenodd" fill="#046699" d="M222.703,93.739c1.135,1.046,2.683,1.539,4.589,1.539
		c1.907,0,3.454-0.493,4.589-1.539c1.186-1.045,1.751-2.696,1.751-4.949v-7.263c0-2.257-0.565-3.907-1.751-4.952
		c-1.135-1.045-2.682-1.539-4.589-1.539c-1.906,0-3.454,0.494-4.589,1.539c-1.136,1.045-1.701,2.695-1.701,4.952v7.263
		C221.002,91.043,221.567,92.694,222.703,93.739 M225.022,81.527c0-1.817,0.773-2.751,2.27-2.751c1.549,0,2.271,0.934,2.271,2.751
		v7.263c0,1.813-0.722,2.751-2.271,2.751c-1.496,0-2.27-0.938-2.27-2.751V81.527z"/>
	<path fill="#646566" d="M234.811,73.406c0.202,0,0.397,0.054,0.584,0.161c0.185,0.107,0.33,0.263,0.438,0.463
		c0.105,0.202,0.158,0.411,0.158,0.631c0,0.219-0.052,0.427-0.156,0.626c-0.104,0.198-0.248,0.352-0.436,0.464
		c-0.186,0.109-0.382,0.165-0.588,0.165c-0.205,0-0.4-0.056-0.586-0.165c-0.188-0.112-0.331-0.266-0.437-0.464
		c-0.104-0.199-0.155-0.407-0.155-0.626c0-0.22,0.053-0.429,0.157-0.631c0.107-0.2,0.253-0.355,0.44-0.463
		C234.415,73.46,234.609,73.406,234.811,73.406 M234.813,73.651c-0.161,0-0.317,0.044-0.465,0.131
		c-0.15,0.085-0.267,0.209-0.353,0.371c-0.085,0.162-0.129,0.331-0.129,0.508c0,0.176,0.042,0.345,0.126,0.503
		c0.083,0.159,0.2,0.284,0.349,0.374c0.15,0.089,0.309,0.135,0.472,0.135c0.164,0,0.323-0.046,0.473-0.135
		c0.149-0.09,0.266-0.215,0.351-0.374c0.083-0.158,0.125-0.327,0.125-0.503c0-0.177-0.043-0.346-0.127-0.508
		c-0.086-0.162-0.204-0.286-0.354-0.371C235.131,73.695,234.975,73.651,234.813,73.651 M234.278,75.333v-1.331h0.255
		c0.237,0,0.372,0.002,0.4,0.003c0.083,0.008,0.149,0.024,0.196,0.053c0.047,0.027,0.084,0.069,0.116,0.128
		c0.031,0.058,0.047,0.121,0.047,0.19c0,0.097-0.029,0.18-0.088,0.246c-0.059,0.069-0.143,0.112-0.248,0.128
		c0.037,0.017,0.065,0.032,0.087,0.05c0.021,0.019,0.049,0.052,0.085,0.103c0.009,0.014,0.04,0.067,0.092,0.163l0.148,0.268h-0.314
		l-0.104-0.216c-0.072-0.146-0.13-0.237-0.177-0.275c-0.046-0.037-0.104-0.056-0.175-0.056h-0.066v0.547H234.278z M234.533,74.576
		h0.103c0.147,0,0.238-0.006,0.274-0.018c0.034-0.012,0.063-0.033,0.083-0.063c0.02-0.03,0.029-0.064,0.029-0.103
		s-0.008-0.069-0.028-0.099c-0.021-0.029-0.048-0.05-0.085-0.063s-0.129-0.02-0.273-0.02h-0.103V74.576z"/>
	<path fill="#182D55" d="M156.875,85.487v-10.05h2.095c1.438,0,2.345,0.685,2.345,2.247V78.2c0,0.979-0.461,1.55-1.229,1.801
		c1.006,0.237,1.606,0.907,1.606,2.178v0.712c0,1.773-1.006,2.597-2.582,2.597H156.875z M157.505,75.996v3.769h1.465
		c1.047,0,1.716-0.462,1.716-1.606V77.74c0-1.2-0.656-1.744-1.716-1.744H157.505z M157.505,80.323v4.604h1.604
		c1.186,0,1.954-0.654,1.954-2.023v-0.74c0-1.256-0.769-1.841-1.954-1.841H157.505z"/>
	<polygon fill="#182D55" points="164.164,85.487 164.164,81.746 161.666,75.438 162.335,75.438 164.471,81.049 166.606,75.438 
		167.276,75.438 164.792,81.746 164.792,85.487 	"/>
	<path fill="#FFFFFF" d="M21.351,47.178c2.477,0,3.995-1.07,3.995-3.601V38.57h7.258v6.414c0,5.569-4.557,8.776-11.702,8.776
		c-6.921,0-11.311-3.207-11.311-8.776V20.901c0-5.571,4.558-8.776,11.76-8.776c6.865,0,11.252,3.206,11.252,8.776v6.416h-7.258
		v-5.008c0-2.476-1.518-3.601-3.995-3.601c-2.756,0-4.05,1.125-4.05,3.601v21.268C17.3,46.107,18.594,47.178,21.351,47.178"/>
	<path fill="#FFFFFF" d="M60.175,21.464V44.42c0,5.907-4.671,9.339-12.155,9.339c-7.54,0-12.208-3.433-12.208-9.339V21.464
		c0-5.907,4.669-9.339,12.208-9.339C55.503,12.125,60.175,15.557,60.175,21.464 M43.518,22.984v19.917
		c0,3.038,1.407,4.276,4.502,4.276c3.039,0,4.502-1.238,4.502-4.276V22.984c0-3.039-1.464-4.277-4.502-4.277
		C44.925,18.708,43.518,19.946,43.518,22.984"/>
	<path fill="#FFFFFF" d="M64.282,53.197v-40.51h11.365c8.834,0,12.154,4.106,12.154,11.029v5.005c0,6.248-3.32,10.017-12.154,10.017
		H71.99v14.459H64.282z M71.99,19.214V32.21h3.826c2.759,0,4.333-1.52,4.333-4.782v-3.263c0-3.377-1.574-4.951-4.277-4.951H71.99z"
		/>
	<path fill="#FFFFFF" d="M90.501,53.197v-40.51h11.366c8.833,0,12.153,4.106,12.153,11.029v5.005c0,6.248-3.32,10.017-12.153,10.017
		h-3.657v14.459H90.501z M98.209,19.214V32.21h3.826c2.756,0,4.333-1.52,4.333-4.782v-3.263c0-3.377-1.576-4.951-4.276-4.951H98.209
		z"/>
	<path fill="#FFFFFF" d="M111.656,53.197l9.959-40.51h9.116l9.901,40.51h-7.651l-1.8-8.213h-10.129l-1.743,8.213H111.656z
		 M122.572,38.005h7.146l-3.546-16.541L122.572,38.005z"/>
	<polygon fill="#172E55" points="158.707,29.845 158.707,13.729 161.773,13.729 161.773,21.003 165.399,13.729 168.645,13.729 
		164.66,21.606 168.891,29.845 165.467,29.845 161.773,22.392 161.773,29.845 	"/>
	<path fill="#172E55" d="M169.83,13.059h3.154v3.222h-3.154V13.059z M169.94,17.757h2.955v12.088h-2.955V17.757z"/>
	<path fill="#172E55" d="M175.222,13.729h4.5c3.849,0,5.304,1.879,5.304,5.238v5.639c0,3.626-1.479,5.239-5.281,5.239h-4.522V13.729
		z M178.289,16.348v10.877h1.455c1.498,0,2.416-0.85,2.416-2.774v-5.326c0-1.926-0.896-2.777-2.438-2.777H178.289z"/>
	<path fill="#172E55" d="M195.945,25.636c0,3.179-1.499,4.432-4.207,4.432h-0.941c-2.55,0-3.982-0.916-3.982-3.266V24.72h2.932
		v1.162c0,1.389,0.379,1.612,1.164,1.612h0.738c0.783,0,1.299-0.179,1.299-1.677v-1.075c0-0.783-0.313-1.298-1.253-1.522
		l-1.501-0.358c-2.215-0.535-3.178-1.565-3.178-4.497v-0.829c0-2.663,1.454-4.028,4.051-4.028h0.336c2.53,0,4.141,1.187,4.141,3.266
		v1.657h-2.933v-0.917c0-1.053-0.335-1.434-1.163-1.434h-0.336c-0.828,0-1.118,0.358-1.118,1.655v0.516
		c0,1.208,0.178,1.522,1.14,1.769l1.276,0.337c2.797,0.737,3.536,1.722,3.536,4.518V25.636z"/>
	<path fill="#172E55" d="M158.707,49.666V33.552h4.521c3.514,0,4.835,1.634,4.835,4.387v1.99c0,2.485-1.321,3.985-4.835,3.985
		h-1.456v5.752H158.707z M161.772,36.147v5.169h1.522c1.098,0,1.724-0.605,1.724-1.902v-1.297c0-1.345-0.626-1.97-1.7-1.97H161.772z
		"/>
	<path fill="#172E55" d="M169.874,49.666V33.552h4.163c3.491,0,4.835,1.634,4.835,4.387v1.99c0,1.635-0.583,2.845-1.971,3.471
		l3.335,6.267h-3.424l-2.844-5.752h-1.028v5.752H169.874z M172.94,36.147v5.169h1.164c1.097,0,1.723-0.605,1.723-1.902v-1.297
		c0-1.345-0.626-1.97-1.7-1.97H172.94z"/>
	<rect x="181.354" y="33.552" fill="#172E55" width="3.066" height="16.115"/>
	<polygon fill="#172E55" points="196.684,33.552 192.902,49.666 189.635,49.666 185.853,33.552 188.873,33.552 191.268,45.927 
		193.664,33.552 	"/>
	<path fill="#172E55" d="M196.166,49.666l3.963-16.114h3.626l3.938,16.114h-3.043l-0.716-3.268h-4.029l-0.693,3.268H196.166z
		 M200.51,43.622h2.842l-1.408-6.579L200.51,43.622z"/>
	<path fill="#172E55" d="M213.288,47.27c0.985,0,1.591-0.426,1.591-1.433v-1.991h2.886v2.551c0,2.216-1.813,3.492-4.654,3.492
		c-2.754,0-4.501-1.276-4.501-3.492v-9.579c0-2.216,1.815-3.492,4.679-3.492c2.731,0,4.477,1.276,4.477,3.492v2.552h-2.886V37.38
		c0-0.986-0.605-1.434-1.591-1.434c-1.096,0-1.61,0.447-1.61,1.434v8.457C211.678,46.844,212.192,47.27,213.288,47.27"/>
	<polygon fill="#172E55" points="222.374,49.666 222.374,44.071 218.391,33.552 221.612,33.552 223.896,40.826 226.201,33.552 
		229.379,33.552 225.418,44.026 225.418,49.666 	"/>
	<path fill="#172E55" d="M157.386,69.485l3.962-16.113h3.626l3.939,16.113h-3.043l-0.717-3.266h-4.029l-0.693,3.266H157.386z
		 M161.729,63.443h2.843l-1.411-6.581L161.729,63.443z"/>
	<path fill="#172E55" d="M178.714,65.278c0,3.178-1.5,4.431-4.208,4.431h-0.939c-2.551,0-3.983-0.917-3.983-3.268v-2.081h2.932
		v1.163c0,1.389,0.382,1.612,1.164,1.612h0.738c0.782,0,1.299-0.179,1.299-1.679v-1.075c0-0.783-0.313-1.298-1.255-1.521
		l-1.499-0.358c-2.215-0.537-3.177-1.567-3.177-4.499v-0.827c0-2.664,1.454-4.029,4.05-4.029h0.336c2.529,0,4.141,1.186,4.141,3.267
		v1.656h-2.932v-0.917c0-1.053-0.336-1.432-1.164-1.432h-0.335c-0.83,0-1.121,0.357-1.121,1.655v0.517
		c0,1.207,0.181,1.521,1.143,1.768l1.275,0.335c2.798,0.739,3.536,1.724,3.536,4.521V65.278z"/>
	<path fill="#172E55" d="M189.277,65.278c0,3.178-1.501,4.431-4.208,4.431h-0.94c-2.551,0-3.984-0.917-3.984-3.268v-2.081h2.931
		v1.163c0,1.389,0.382,1.612,1.165,1.612h0.739c0.782,0,1.298-0.179,1.298-1.679v-1.075c0-0.783-0.313-1.298-1.254-1.521
		l-1.499-0.358c-2.215-0.537-3.177-1.567-3.177-4.499v-0.827c0-2.664,1.453-4.029,4.05-4.029h0.336c2.53,0,4.14,1.186,4.14,3.267
		v1.656h-2.932v-0.917c0-1.053-0.335-1.432-1.163-1.432h-0.337c-0.827,0-1.119,0.357-1.119,1.655v0.517
		c0,1.207,0.18,1.521,1.143,1.768l1.276,0.335c2.797,0.739,3.536,1.724,3.536,4.521V65.278z"/>
	<path fill="#172E55" d="M200.823,53.372v12.13c0,2.642-1.88,4.207-4.833,4.207c-2.977,0-4.857-1.565-4.857-4.207v-12.13h3.044
		v11.527c0,1.409,0.626,2.014,1.813,2.014c1.186,0,1.79-0.604,1.79-2.014V53.372H200.823z"/>
	<path fill="#172E55" d="M203.262,69.485V53.372h4.162c3.492,0,4.836,1.635,4.836,4.386v1.992c0,1.635-0.583,2.842-1.97,3.468
		l3.334,6.267H210.2l-2.842-5.751h-1.03v5.751H203.262z M206.328,55.968v5.17h1.163c1.098,0,1.723-0.605,1.723-1.904v-1.296
		c0-1.345-0.625-1.97-1.7-1.97H206.328z"/>
	<polygon fill="#172E55" points="223.09,69.485 214.74,69.485 214.74,53.372 223.09,53.372 223.09,55.968 217.809,55.968 
		217.809,59.93 221.88,59.93 221.88,62.525 217.809,62.525 217.809,66.89 223.09,66.89 	"/>
	<path fill="#172E55" d="M225.035,53.372h4.499c3.849,0,5.304,1.881,5.304,5.237v5.641c0,3.625-1.477,5.236-5.28,5.236h-4.522
		V53.372z M228.102,55.991v10.876h1.456c1.498,0,2.416-0.851,2.416-2.776v-5.326c0-1.925-0.896-2.775-2.439-2.775H228.102z"/>
	<rect x="1.64" y="62.751" fill="#FFFFFF" width="150.336" height="1.471"/>
</g>
</svg>
