<?xml version="1.0" encoding="utf-8"?>
<!-- Generator: Adobe Illustrator 21.0.0, SVG Export Plug-In . SVG Version: 6.00 Build 0)  -->
<svg version="1.1" id="Layer_1" xmlns="http://www.w3.org/2000/svg" xmlns:xlink="http://www.w3.org/1999/xlink" x="0px" y="0px"
	 viewBox="0 0 216.1 110.7" style="enable-background:new 0 0 216.1 110.7;" xml:space="preserve">
<style type="text/css">
	.st0{fill:#FFFFFF;}
	.st1{fill:#172D54;}
	.st2{fill-rule:evenodd;clip-rule:evenodd;fill:#086699;}
	.st3{fill:#646566;}
	.st4{fill:#172D55;}
</style>
<g>
	<path class="st0" d="M131.4,6c26.6,0,53.2,0,79.8,0c0,0.3,0,0.5,0,0.8c0,18.9,0,37.8,0,56.6c0,4.7-0.8,9.3-3,13.6
		c-2,3.9-5,7-8.3,9.8c-4.6,3.8-9.6,6.9-14.7,10c-4.5,2.8-9,5.6-13.5,8.3c-0.2,0.1-0.6,0.2-0.8,0c-7.3-4.5-14.6-9-21.8-13.6
		c-3.4-2.2-6.7-4.7-9.6-7.6c-4.9-4.9-7.6-10.7-8-17.7c-0.1-1.2-0.1-2.3-0.1-3.5c0-18.6,0-37.2,0-55.8C131.4,6.7,131.4,6.4,131.4,6z"
		/>
	<g>
		<path class="st0" d="M1.5,110.6c0-36.5,0-73.1,0-109.6c0.4,0,0.7,0,1,0c40.8,0,81.6,0.3,122.4,0c30-0.2,60.1,0.1,90.1,0
			c0.3,0,0.6,0,1,0c0,0.7,0-0.7,0,0c0,20.1,0,42.2,0,62.3c0,3.6-0.4,7.1-1.3,10.6c-1.4,4.8-3.8,8.9-7.2,12.5
			c-4,4.2-8.6,7.6-13.5,10.7c-4.2,2.7-8.5,5.3-12.8,8c-2.7,1.7-5.4,3.3-8.1,5.1c-0.9,0.6-1.8,0.7-2.8,0.5c-0.3-0.1-0.6,0-1,0
			c-55.6,0-111.2,0-166.8,0C2.2,110.6,1.8,110.6,1.5,110.6z"/>
	</g>
	<rect x="2.9" y="2.6" class="st1" width="168.5" height="106.5"/>
	<g>
		<path class="st0" d="M12.6,71.9c0.7,0,1.1-0.3,1.1-1v-1.4h2.1v1.8c0,1.6-1.3,2.5-3.3,2.5c-2,0-3.2-0.9-3.2-2.5v-6.8
			c0-1.6,1.3-2.5,3.3-2.5c1.9,0,3.2,0.9,3.2,2.5v1.8h-2.1v-1.4c0-0.7-0.4-1-1.1-1c-0.8,0-1.1,0.3-1.1,1v6
			C11.5,71.6,11.8,71.9,12.6,71.9z"/>
		<path class="st0" d="M17.3,73.6V62.2h2.2v4.7h2.5v-4.7h2.2v11.5h-2.2v-5h-2.5v5H17.3z"/>
		<path class="st0" d="M26,73.6V62.2h2.2v11.5H26z"/>
		<path class="st0" d="M35.9,73.6H30V62.2h2.2v9.6h3.7V73.6z"/>
		<path class="st0" d="M36.9,62.2h3.2c2.7,0,3.8,1.3,3.8,3.7v4c0,2.6-1.1,3.7-3.8,3.7h-3.2V62.2z M39.1,64v7.7h1
			c1.1,0,1.7-0.6,1.7-2V66c0-1.4-0.6-2-1.7-2H39.1z"/>
		<path class="st0" d="M45.5,73.6V62.2h3c2.5,0,3.4,1.2,3.4,3.1v1.4c0,1.2-0.4,2-1.4,2.5l2.4,4.5h-2.4l-2-4.1h-0.7v4.1H45.5z
			 M47.7,64v3.7h0.8c0.8,0,1.2-0.4,1.2-1.4v-0.9c0-1-0.4-1.4-1.2-1.4H47.7z"/>
		<path class="st0" d="M59.6,73.6h-5.9V62.2h5.9V64h-3.8v2.8h2.9v1.8h-2.9v3.1h3.8V73.6z"/>
		<path class="st0" d="M61,73.6V62.2h1.8l3.3,6.5l0.3,0.8l0-0.9v-6.4h1.9v11.5h-1.8l-3.3-6.4l-0.4-1l0,1v6.5H61z"/>
		<path class="st0" d="M69.6,66.5l0.4-4.3h2.5l-1.3,4.3H69.6z"/>
		<path class="st0" d="M79.6,70.6c0,2.3-1.1,3.2-3,3.2H76c-1.8,0-2.8-0.7-2.8-2.3V70h2.1v0.8c0,1,0.3,1.1,0.8,1.1h0.5
			c0.6,0,0.9-0.1,0.9-1.2V70c0-0.6-0.2-0.9-0.9-1.1l-1.1-0.3c-1.6-0.4-2.3-1.1-2.3-3.2v-0.6c0-1.9,1-2.9,2.9-2.9h0.2
			c1.8,0,2.9,0.8,2.9,2.3v1.2h-2.1v-0.7c0-0.7-0.2-1-0.8-1h-0.2c-0.6,0-0.8,0.3-0.8,1.2v0.4c0,0.9,0.1,1.1,0.8,1.3l0.9,0.2
			c2,0.5,2.5,1.2,2.5,3.2V70.6z"/>
		<path class="st0" d="M16.2,79.5V86c0,1.7-1.3,2.6-3.4,2.6c-2.1,0-3.5-1-3.5-2.6v-6.5c0-1.7,1.3-2.6,3.5-2.6
			C14.8,76.8,16.2,77.8,16.2,79.5z M11.5,79.9v5.6c0,0.9,0.4,1.2,1.3,1.2c0.9,0,1.3-0.4,1.3-1.2v-5.6c0-0.9-0.4-1.2-1.3-1.2
			C11.8,78.7,11.5,79,11.5,79.9z"/>
		<path class="st0" d="M17.8,88.5V77h1.8l3.3,6.5l0.3,0.8l0-0.9V77h1.9v11.5h-1.8L20.1,82l-0.4-1l0,1v6.5H17.8z"/>
		<path class="st0" d="M32.9,88.5H27V77h2.2v9.6h3.7V88.5z"/>
		<path class="st0" d="M33.9,88.5V77h2.2v11.5H33.9z"/>
		<path class="st0" d="M37.8,88.5V77h1.8l3.3,6.5l0.3,0.8l0-0.9V77h1.9v11.5h-1.8L40.1,82l-0.4-1l0,1v6.5H37.8z"/>
		<path class="st0" d="M52.9,88.5h-5.9V77h5.9v1.8h-3.8v2.8H52v1.8h-2.9v3.1h3.8V88.5z"/>
		<path class="st0" d="M56.8,88.5V77H60c2.5,0,3.4,1.2,3.4,3.1v1.4c0,1.8-0.9,2.8-3.4,2.8h-1v4.1H56.8z M59,78.8v3.7H60
			c0.8,0,1.2-0.4,1.2-1.4v-0.9c0-1-0.4-1.4-1.2-1.4H59z"/>
		<path class="st0" d="M64.7,88.5V77h3c2.5,0,3.4,1.2,3.4,3.1v1.4c0,1.2-0.4,2-1.4,2.5l2.4,4.5h-2.4l-2-4.1h-0.7v4.1H64.7z
			 M66.9,78.8v3.7h0.8c0.8,0,1.2-0.4,1.2-1.4v-0.9c0-1-0.4-1.4-1.2-1.4H66.9z"/>
		<path class="st0" d="M72.9,88.5V77h2.2v11.5H72.9z"/>
		<path class="st0" d="M83.8,77l-2.7,11.5h-2.3L76.1,77h2.1l1.7,8.8l1.7-8.8H83.8z"/>
		<path class="st0" d="M83.4,88.5L86.2,77h2.6l2.8,11.5h-2.2l-0.5-2.3h-2.9l-0.5,2.3H83.4z M86.5,84.2h2l-1-4.7L86.5,84.2z"/>
		<path class="st0" d="M95.6,86.8c0.7,0,1.1-0.3,1.1-1v-1.4h2.1v1.8c0,1.6-1.3,2.5-3.3,2.5c-2,0-3.2-0.9-3.2-2.5v-6.8
			c0-1.6,1.3-2.5,3.3-2.5c1.9,0,3.2,0.9,3.2,2.5v1.8h-2.1v-1.4c0-0.7-0.4-1-1.1-1c-0.8,0-1.1,0.3-1.1,1v6
			C94.4,86.4,94.8,86.8,95.6,86.8z"/>
		<path class="st0" d="M102.1,88.5v-4L99.2,77h2.3l1.6,5.2l1.6-5.2h2.3l-2.8,7.5v4H102.1z"/>
		<path class="st0" d="M9.4,103.3V91.8h3.2c2.5,0,3.4,1.2,3.4,3.1v1.4c0,1.8-0.9,2.8-3.4,2.8h-1v4.1H9.4z M11.6,93.7v3.7h1.1
			c0.8,0,1.2-0.4,1.2-1.4v-0.9c0-1-0.4-1.4-1.2-1.4H11.6z"/>
		<path class="st0" d="M17.3,103.3V91.8h3c2.5,0,3.4,1.2,3.4,3.1v1.4c0,1.2-0.4,2-1.4,2.5l2.4,4.5h-2.4l-2-4.1h-0.7v4.1H17.3z
			 M19.5,93.7v3.7h0.8c0.8,0,1.2-0.4,1.2-1.4v-0.9c0-1-0.4-1.4-1.2-1.4H19.5z"/>
		<path class="st0" d="M32.2,94.3v6.5c0,1.7-1.3,2.6-3.4,2.6c-2.1,0-3.5-1-3.5-2.6v-6.5c0-1.7,1.3-2.6,3.5-2.6
			C30.9,91.7,32.2,92.6,32.2,94.3z M27.5,94.7v5.6c0,0.9,0.4,1.2,1.3,1.2c0.9,0,1.3-0.4,1.3-1.2v-5.6c0-0.9-0.4-1.2-1.3-1.2
			C27.9,93.5,27.5,93.9,27.5,94.7z"/>
		<path class="st0" d="M35.3,103.3v-9.6H33v-1.8h6.6v1.8h-2.2v9.6H35.3z"/>
		<path class="st0" d="M46.6,103.3h-5.9V91.8h5.9v1.8h-3.8v2.8h2.9v1.8h-2.9v3.1h3.8V103.3z"/>
		<path class="st0" d="M51.2,101.6c0.7,0,1.1-0.3,1.1-1v-1.4h2.1v1.8c0,1.6-1.3,2.5-3.3,2.5c-2,0-3.2-0.9-3.2-2.5v-6.8
			c0-1.6,1.3-2.5,3.3-2.5c1.9,0,3.2,0.9,3.2,2.5V96h-2.1v-1.4c0-0.7-0.4-1-1.1-1c-0.8,0-1.1,0.3-1.1,1v6
			C50.1,101.3,50.5,101.6,51.2,101.6z"/>
		<path class="st0" d="M57.3,103.3v-9.6h-2.2v-1.8h6.6v1.8h-2.2v9.6H57.3z"/>
		<path class="st0" d="M62.8,103.3V91.8H65v11.5H62.8z"/>
		<path class="st0" d="M73.5,94.3v6.5c0,1.7-1.3,2.6-3.4,2.6c-2.1,0-3.5-1-3.5-2.6v-6.5c0-1.7,1.3-2.6,3.5-2.6
			C72.2,91.7,73.5,92.6,73.5,94.3z M68.8,94.7v5.6c0,0.9,0.4,1.2,1.3,1.2c0.9,0,1.3-0.4,1.3-1.2v-5.6c0-0.9-0.4-1.2-1.3-1.2
			C69.2,93.5,68.8,93.9,68.8,94.7z"/>
		<path class="st0" d="M75.2,103.3V91.8H77l3.3,6.5l0.3,0.8l0-0.9v-6.4h1.9v11.5h-1.8l-3.3-6.4l-0.4-1l0,1v6.5H75.2z"/>
		<path class="st0" d="M85.5,103.3l2.8-11.5h2.6l2.8,11.5h-2.2L91,101h-2.9l-0.5,2.3H85.5z M88.6,99h2l-1-4.7L88.6,99z"/>
		<path class="st0" d="M97.7,101.6c0.7,0,1.1-0.3,1.1-1v-1.4h2.1v1.8c0,1.6-1.3,2.5-3.3,2.5c-2,0-3.2-0.9-3.2-2.5v-6.8
			c0-1.6,1.3-2.5,3.3-2.5c1.9,0,3.2,0.9,3.2,2.5V96h-2.1v-1.4c0-0.7-0.4-1-1.1-1c-0.8,0-1.1,0.3-1.1,1v6
			C96.5,101.3,96.9,101.6,97.7,101.6z"/>
		<path class="st0" d="M103.8,103.3v-9.6h-2.2v-1.8h6.6v1.8H106v9.6H103.8z"/>
	</g>
	<g>
		<path class="st1" d="M128.1,2.6c28.9,0,57.7,0,86.5,0c0,0.3,0,0.5,0,0.8c0,20,0,40,0,60.1c0,5.1-0.8,10-3.1,14.6
			c-2,4-4.8,7.3-8.1,10.2c-4.4,3.9-9.4,7.1-14.4,10.2c-5.6,3.5-11.2,6.9-16.8,10.4c-0.6,0.4-1,0.4-1.7,0
			c-7.4-4.6-14.9-9.2-22.3-13.9c-4-2.6-7.8-5.4-11.2-8.8c-5.5-5.5-8.4-12-8.8-19.8c-0.1-1.3-0.1-2.6-0.1-3.8c0-19.6,0-39.3,0-58.9
			C128.1,3.3,128.1,3,128.1,2.6z M131.4,6c0,0.4,0,0.7,0,1c0,18.6,0,37.2,0,55.8c0,1.2,0.1,2.3,0.1,3.5c0.4,6.9,3.1,12.8,8,17.7
			c2.9,2.9,6.1,5.4,9.6,7.6c7.2,4.6,14.6,9.1,21.8,13.6c0.2,0.1,0.6,0.1,0.8,0c4.5-2.8,9-5.6,13.5-8.3c5-3.1,10.1-6.2,14.7-10
			c3.3-2.8,6.3-5.9,8.3-9.8c2.2-4.3,3-8.8,3-13.6c0-18.9,0-37.8,0-56.6c0-0.3,0-0.5,0-0.8C184.6,6,158.1,6,131.4,6z"/>
		<path class="st0" d="M131.4,6c26.6,0,53.2,0,79.8,0c0,0.3,0,0.5,0,0.8c0,18.9,0,37.8,0,56.6c0,4.7-0.8,9.3-3,13.6
			c-2,3.9-5,7-8.3,9.8c-4.6,3.8-9.6,6.9-14.7,10c-4.5,2.8-9,5.6-13.5,8.3c-0.2,0.1-0.6,0.2-0.8,0c-7.3-4.5-14.6-9-21.8-13.6
			c-3.4-2.2-6.7-4.7-9.6-7.6c-4.9-4.9-7.6-10.7-8-17.7c-0.1-1.2-0.1-2.3-0.1-3.5c0-18.6,0-37.2,0-55.8C131.4,6.7,131.4,6.4,131.4,6z
			"/>
	</g>
	<g>
		<g>
			<g>
				<g>
					<g>
						<g>
							<path class="st2" d="M149.1,80.5c0.3,0.2,0.8,0.3,1.2,0.3c0.5,0,0.9-0.1,1.2-0.3c0.4-0.2,0.5-0.5,0.5-0.9v-5.1h2.2
								c1.7,0,3-0.4,4-1.3c1-0.9,1.5-2.3,1.5-4.2V69c0-1.9-0.5-3.3-1.4-4.2c-1-0.9-2.3-1.3-3.9-1.3h-4.6c-0.4,0-0.7,0.1-0.9,0.3
								c-0.2,0.2-0.4,0.5-0.4,0.8v15C148.6,80.1,148.8,80.4,149.1,80.5 M152.1,66.8h2.2c1.4,0,2,0.8,2,2.4v0.2c0,1.6-0.7,2.4-2,2.4
								h-2.2V66.8z"/>
							<path class="st2" d="M161.8,80.6c0.4,0.2,0.8,0.3,1.2,0.3c0.4,0,0.9-0.1,1.2-0.3c0.4-0.2,0.5-0.5,0.5-0.9V74h1.5l3.1,6.3
								c0.2,0.4,0.6,0.7,1.1,0.7c0.5,0,1-0.2,1.5-0.6c0.4-0.4,0.7-0.9,0.7-1.3c0-0.1,0-0.3-0.1-0.4l-2.7-5.2
								c1.8-0.7,2.7-2.3,2.7-4.7c0-3.4-1.9-5.1-5.5-5.1h-4.6c-0.3,0-0.6,0.1-0.8,0.3c-0.2,0.2-0.3,0.5-0.3,0.8v15
								C161.3,80.1,161.4,80.4,161.8,80.6 M164.7,66.8h2.2c0.7,0,1.2,0.2,1.5,0.5c0.3,0.3,0.5,0.9,0.5,1.7c0,0.8-0.2,1.3-0.5,1.7
								c-0.4,0.3-0.8,0.5-1.5,0.5h-2.2V66.8z"/>
							<path class="st2" d="M174.7,80.5c0.4,0.2,0.8,0.3,1.2,0.3c0.5,0,0.9-0.1,1.2-0.3c0.4-0.2,0.5-0.5,0.5-0.9v-15
								c0-0.4-0.2-0.6-0.5-0.8c-0.3-0.2-0.7-0.3-1.2-0.3c-0.5,0-0.9,0.1-1.2,0.3c-0.4,0.2-0.5,0.4-0.5,0.8v15
								C174.2,80.1,174.3,80.4,174.7,80.5"/>
							<path class="st2" d="M179,65.4l4.1,14.4c0.1,0.4,0.4,0.7,0.8,0.9c0.4,0.2,0.9,0.3,1.4,0.3c0.6,0,1.1-0.1,1.5-0.3
								c0.4-0.2,0.7-0.5,0.8-0.9l4.1-14.4c0-0.1,0-0.2,0-0.2c0-0.4-0.3-0.8-0.8-1.1c-0.4-0.3-1-0.4-1.5-0.4c-0.7,0-1,0.2-1.1,0.7
								l-3.1,12.1l-3.1-12.1c-0.1-0.5-0.5-0.7-1.1-0.7c-0.5,0-1,0.1-1.5,0.4c-0.5,0.3-0.7,0.7-0.7,1.1
								C178.9,65.2,178.9,65.2,179,65.4"/>
							<path class="st2" d="M193.7,79.7c1,0.9,2.3,1.3,3.9,1.3c1.6,0,3-0.4,3.9-1.3c1-0.9,1.5-2.3,1.5-4.2v-6.2
								c0-1.9-0.5-3.4-1.5-4.3c-1-0.9-2.3-1.3-3.9-1.3c-1.6,0-3,0.4-3.9,1.3c-1,0.9-1.5,2.3-1.5,4.3v6.2
								C192.3,77.3,192.8,78.8,193.7,79.7 M195.7,69.2c0-1.6,0.7-2.4,1.9-2.4c1.3,0,1.9,0.8,1.9,2.4v6.2c0,1.6-0.6,2.4-1.9,2.4
								c-1.3,0-1.9-0.8-1.9-2.4V69.2z"/>
						</g>
					</g>
				</g>
				<g>
					<path class="st3" d="M204.1,62.2c0.2,0,0.3,0,0.5,0.1c0.2,0.1,0.3,0.2,0.4,0.4c0.1,0.2,0.1,0.4,0.1,0.5c0,0.2,0,0.4-0.1,0.5
						c-0.1,0.2-0.2,0.3-0.4,0.4c-0.2,0.1-0.3,0.1-0.5,0.1c-0.2,0-0.3,0-0.5-0.1s-0.3-0.2-0.4-0.4c-0.1-0.2-0.1-0.3-0.1-0.5
						c0-0.2,0-0.4,0.1-0.5c0.1-0.2,0.2-0.3,0.4-0.4C203.8,62.3,204,62.2,204.1,62.2z M204.1,62.4c-0.1,0-0.3,0-0.4,0.1
						c-0.1,0.1-0.2,0.2-0.3,0.3c-0.1,0.1-0.1,0.3-0.1,0.4c0,0.2,0,0.3,0.1,0.4c0.1,0.1,0.2,0.2,0.3,0.3c0.1,0.1,0.3,0.1,0.4,0.1
						c0.1,0,0.3,0,0.4-0.1c0.1-0.1,0.2-0.2,0.3-0.3c0.1-0.1,0.1-0.3,0.1-0.4c0-0.2,0-0.3-0.1-0.4c-0.1-0.1-0.2-0.2-0.3-0.3
						C204.4,62.5,204.3,62.4,204.1,62.4z M203.7,63.9v-1.1h0.2c0.2,0,0.3,0,0.3,0c0.1,0,0.1,0,0.2,0c0,0,0.1,0.1,0.1,0.1
						s0,0.1,0,0.2c0,0.1,0,0.2-0.1,0.2c-0.1,0.1-0.1,0.1-0.2,0.1c0,0,0.1,0,0.1,0c0,0,0,0,0.1,0.1c0,0,0,0.1,0.1,0.1l0.1,0.2h-0.3
						l-0.1-0.2c-0.1-0.1-0.1-0.2-0.2-0.2c0,0-0.1,0-0.2,0h-0.1v0.5H203.7z M203.9,63.2L203.9,63.2c0.2,0,0.3,0,0.3,0
						c0,0,0.1,0,0.1-0.1c0,0,0-0.1,0-0.1c0,0,0-0.1,0-0.1s0,0-0.1-0.1c0,0-0.1,0-0.2,0h-0.1V63.2z"/>
				</g>
			</g>
		</g>
		<g>
			<path class="st4" d="M137.5,26.1V11.9h2.7v6.4l3.2-6.4h2.9l-3.5,6.9l3.7,7.2h-3l-3.2-6.5v6.5H137.5z"/>
			<path class="st4" d="M146.5,26.1V11.9h2.7v14.2H146.5z"/>
			<path class="st4" d="M150.4,11.9h4c3.4,0,4.7,1.7,4.7,4.6v5c0,3.2-1.3,4.6-4.6,4.6h-4V11.9z M153.1,14.2v9.6h1.3
				c1.3,0,2.1-0.7,2.1-2.4v-4.7c0-1.7-0.8-2.4-2.1-2.4H153.1z"/>
			<path class="st4" d="M167.6,22.4c0,2.8-1.3,3.9-3.7,3.9h-0.8c-2.2,0-3.5-0.8-3.5-2.9v-1.8h2.6v1c0,1.2,0.3,1.4,1,1.4h0.6
				c0.7,0,1.1-0.2,1.1-1.5v-0.9c0-0.7-0.3-1.1-1.1-1.3l-1.3-0.3c-1.9-0.5-2.8-1.4-2.8-4v-0.7c0-2.3,1.3-3.5,3.6-3.5h0.3
				c2.2,0,3.6,1,3.6,2.9v1.5h-2.6v-0.8c0-0.9-0.3-1.3-1-1.3h-0.3c-0.7,0-1,0.3-1,1.5v0.5c0,1.1,0.2,1.3,1,1.6l1.1,0.3
				c2.5,0.6,3.1,1.5,3.1,4V22.4z"/>
			<path class="st4" d="M137.5,43.3V29.2h4c3.1,0,4.2,1.4,4.2,3.9v1.7c0,2.2-1.2,3.5-4.2,3.5h-1.3v5.1H137.5z M140.1,31.5V36h1.3
				c1,0,1.5-0.5,1.5-1.7v-1.1c0-1.2-0.6-1.7-1.5-1.7H140.1z"/>
			<path class="st4" d="M146.3,43.3V29.2h3.7c3.1,0,4.2,1.4,4.2,3.9v1.7c0,1.4-0.5,2.5-1.7,3l2.9,5.5h-3l-2.5-5.1H149v5.1H146.3z
				 M149,31.5V36h1c1,0,1.5-0.5,1.5-1.7v-1.1c0-1.2-0.6-1.7-1.5-1.7H149z"/>
			<path class="st4" d="M155.4,43.3V29.2h2.7v14.2H155.4z"/>
			<path class="st4" d="M167.9,29.2l-3.3,14.2h-2.9l-3.3-14.2h2.7l2.1,10.9l2.1-10.9H167.9z"/>
			<path class="st4" d="M166.4,43.3l3.5-14.2h3.2l3.5,14.2h-2.7l-0.6-2.9h-3.5l-0.6,2.9H166.4z M170.2,38h2.5l-1.2-5.8L170.2,38z"/>
			<path class="st4" d="M180.5,41.2c0.9,0,1.4-0.4,1.4-1.3v-1.7h2.5v2.2c0,1.9-1.6,3.1-4.1,3.1c-2.4,0-4-1.1-4-3.1v-8.4
				c0-1.9,1.6-3.1,4.1-3.1c2.4,0,3.9,1.1,3.9,3.1v2.2h-2.5v-1.7c0-0.9-0.5-1.3-1.4-1.3c-1,0-1.4,0.4-1.4,1.3V40
				C179.1,40.9,179.5,41.2,180.5,41.2z"/>
			<path class="st4" d="M187.5,43.3v-4.9l-3.5-9.2h2.8l2,6.4l2-6.4h2.8l-3.5,9.2v5H187.5z"/>
			<path class="st4" d="M141.4,58.5c0.9,0,1.4-0.4,1.4-1.3v-1.7h2.5v2.2c0,1.9-1.6,3.1-4.1,3.1c-2.4,0-4-1.1-4-3.1v-8.4
				c0-1.9,1.6-3.1,4.1-3.1c2.4,0,3.9,1.1,3.9,3.1v2.2h-2.5v-1.7c0-0.9-0.5-1.3-1.4-1.3c-1,0-1.4,0.4-1.4,1.3v7.4
				C140,58.1,140.5,58.5,141.4,58.5z"/>
			<path class="st4" d="M153.6,60.6h-7.3V46.4h7.3v2.3H149v3.5h3.6v2.3H149v3.8h4.6V60.6z"/>
			<path class="st4" d="M154.3,60.6V46.4h3.7c3.1,0,4.2,1.4,4.2,3.9V52c0,1.4-0.5,2.5-1.7,3l2.9,5.5h-3l-2.5-5.1H157v5.1H154.3z
				 M157,48.7v4.5h1c1,0,1.5-0.5,1.5-1.7v-1.1c0-1.2-0.6-1.7-1.5-1.7H157z"/>
			<path class="st4" d="M165,60.6V48.7h-2.8v-2.3h8.2v2.3h-2.7v11.9H165z"/>
			<path class="st4" d="M170.7,60.6V46.4h2.7v14.2H170.7z"/>
			<path class="st4" d="M174.6,60.6V46.4h7.3v2.3h-4.6v4.1h3.6v2.3h-3.6v5.5H174.6z"/>
			<path class="st4" d="M182.4,60.6V46.4h2.7v14.2H182.4z"/>
			<path class="st4" d="M193.6,60.6h-7.3V46.4h7.3v2.3H189v3.5h3.6v2.3H189v3.8h4.6V60.6z"/>
			<path class="st4" d="M194.3,46.4h4c3.4,0,4.7,1.7,4.7,4.6v5c0,3.2-1.3,4.6-4.6,4.6h-4V46.4z M197,48.7v9.6h1.3
				c1.3,0,2.1-0.7,2.1-2.4v-4.7c0-1.7-0.8-2.4-2.1-2.4H197z"/>
			<path class="st4" d="M137.2,72.6V64h1.8c1.2,0,2,0.6,2,1.9v0.4c0,0.8-0.4,1.3-1.1,1.5c0.9,0.2,1.4,0.8,1.4,1.9v0.6
				c0,1.5-0.9,2.2-2.2,2.2H137.2z M137.8,64.4v3.2h1.3c0.9,0,1.5-0.4,1.5-1.4v-0.4c0-1-0.6-1.5-1.5-1.5H137.8z M137.8,68.1v4h1.4
				c1,0,1.7-0.6,1.7-1.7v-0.6c0-1.1-0.7-1.6-1.7-1.6H137.8z"/>
			<path class="st4" d="M143.5,72.6v-3.2l-2.1-5.4h0.6l1.8,4.8l1.8-4.8h0.6l-2.1,5.4v3.2H143.5z"/>
		</g>
	</g>
	<g>
		<path class="st0" d="M19.8,41.3c2.1,0,3.4-0.9,3.4-3.1v-4.3h6.2v5.5c0,4.8-3.9,7.5-10,7.5c-5.9,0-9.7-2.8-9.7-7.5V18.8
			c0-4.8,3.9-7.5,10.1-7.5c5.9,0,9.7,2.8,9.7,7.5v5.5h-6.2V20c0-2.1-1.3-3.1-3.4-3.1c-2.4,0-3.5,1-3.5,3.1v18.3
			C16.3,40.4,17.4,41.3,19.8,41.3z"/>
		<path class="st0" d="M53.1,19.3V39c0,5.1-4,8-10.4,8c-6.5,0-10.5-2.9-10.5-8V19.3c0-5.1,4-8,10.5-8C49.1,11.2,53.1,14.2,53.1,19.3
			z M38.8,20.6v17.1c0,2.6,1.2,3.7,3.9,3.7c2.6,0,3.9-1.1,3.9-3.7V20.6c0-2.6-1.3-3.7-3.9-3.7C40,16.9,38.8,18,38.8,20.6z"/>
		<path class="st0" d="M56.6,46.5V11.7h9.8c7.6,0,10.4,3.5,10.4,9.5v4.3c0,5.4-2.9,8.6-10.4,8.6h-3.1v12.4H56.6z M63.3,17.3v11.2
			h3.3c2.4,0,3.7-1.3,3.7-4.1v-2.8c0-2.9-1.4-4.3-3.7-4.3H63.3z"/>
		<path class="st0" d="M79.2,46.5V11.7h9.8c7.6,0,10.4,3.5,10.4,9.5v4.3c0,5.4-2.9,8.6-10.4,8.6h-3.1v12.4H79.2z M85.8,17.3v11.2
			h3.3c2.4,0,3.7-1.3,3.7-4.1v-2.8c0-2.9-1.4-4.3-3.7-4.3H85.8z"/>
		<path class="st0" d="M97.3,46.5l8.5-34.8h7.8l8.5,34.8h-6.6l-1.5-7.1h-8.7l-1.5,7.1H97.3z M106.7,33.5h6.1l-3-14.2L106.7,33.5z"/>
	</g>
	
		<rect x="1.4" y="55.3" transform="matrix(-1 -1.224647e-16 1.224647e-16 -1 133.2291 111.7753)" class="st0" width="130.5" height="1.3"/>
</g>
</svg>
