<?xml version="1.0" encoding="utf-8"?>
<!-- Generator: Adobe Illustrator 27.2.0, SVG Export Plug-In . SVG Version: 6.00 Build 0)  -->
<svg version="1.1" id="Layer_1" xmlns="http://www.w3.org/2000/svg" xmlns:xlink="http://www.w3.org/1999/xlink" x="0px" y="0px"
	 viewBox="0 0 250 128" style="enable-background:new 0 0 250 128;" xml:space="preserve">
<style type="text/css">
	.st0{fill:#FFFFFF;}
	.st1{fill:#174275;}
	.st2{fill-rule:evenodd;clip-rule:evenodd;fill:#046699;}
	.st3{fill:#646566;}
	.st4{fill:#182D55;}
	.st5{fill:#172E55;}
</style>
<g>
	<path class="st0" d="M151.4,6h92.9c0,0.3,0,0.6,0,0.9c0,22,0,44,0,66c0,5.5-0.9,10.9-3.5,15.8c-2.4,4.5-5.8,8.1-9.7,11.4
		c-5.3,4.4-11.2,8-17.1,11.6c-5.3,3.2-10.5,6.5-15.8,9.7c-0.2,0.1-0.7,0.2-0.9,0.1c-8.5-5.3-17-10.5-25.4-15.9
		c-4-2.6-7.8-5.5-11.2-8.8c-5.7-5.7-8.9-12.5-9.3-20.6c-0.1-1.3-0.1-2.7-0.1-4c0-21.7,0-43.3,0-65L151.4,6L151.4,6z"/>
	<path class="st0" d="M0,127.9V0.2h1.2c47.5,0,95.1,0.3,142.6,0c35-0.2,70,0.2,105,0c0.3,0,0.7,0,1.2,0c0,0.8,0-0.8,0,0
		c0,23.4,0,49.2,0,72.6c0,4.2-0.4,8.3-1.6,12.3c-1.6,5.6-4.5,10.4-8.4,14.6c-4.6,4.9-10.1,8.8-15.7,12.5c-4.9,3.2-10,6.2-14.9,9.3
		c-3.1,2-6.3,3.9-9.4,5.9c-1.1,0.7-2.1,0.8-3.3,0.6c-0.4-0.1-0.7,0-1.1,0c-64.8,0-129.5,0-194.3,0L0,127.9L0,127.9z"/>
	<rect x="1.6" y="2.1" class="st1" width="196.2" height="124"/>
	<rect x="1.6" y="64.2" class="st1" width="195.3" height="61.6"/>
	<path class="st0" d="M18.6,84c0,3.4-1.6,4.7-4.4,4.7h-1c-2.7,0-4.2-1-4.2-3.5V83h3.1v1.2c0,1.5,0.4,1.7,1.2,1.7h0.8
		c0.8,0,1.4-0.2,1.4-1.8V83c0-0.8-0.3-1.4-1.3-1.6L12.6,81c-2.3-0.6-3.4-1.7-3.4-4.8v-0.9c0-2.8,1.5-4.3,4.3-4.3h0.4
		c2.7,0,4.4,1.3,4.4,3.5v1.8h-3.1v-1c0-1.1-0.4-1.5-1.2-1.5h-0.4c-0.9,0-1.2,0.4-1.2,1.8v0.5c0,1.3,0.2,1.6,1.2,1.9l1.3,0.4
		c3,0.8,3.7,1.8,3.7,4.8V84L18.6,84z"/>
	<path class="st0" d="M19.2,88.5l4.2-17h3.8l4.2,17h-3.2L27.4,85h-4.3l-0.7,3.5H19.2z M23.8,82.1h3l-1.5-7L23.8,82.1z"/>
	<polygon class="st0" points="32.6,88.5 32.6,71.4 41.4,71.4 41.4,74.2 35.9,74.2 35.9,79.1 40.2,79.1 40.2,81.8 35.9,81.8 
		35.9,88.5 	"/>
	<polygon class="st0" points="51.9,88.5 43.1,88.5 43.1,71.4 51.9,71.4 51.9,74.2 46.4,74.2 46.4,78.4 50.7,78.4 50.7,81.1 
		46.4,81.1 46.4,85.7 51.9,85.7 	"/>
	<polygon class="st0" points="57.7,88.5 57.7,71.4 61,71.4 61,78.4 64.7,78.4 64.7,71.4 68,71.4 68,88.5 64.7,88.5 64.7,81.1 
		61,81.1 61,88.5 	"/>
	<path class="st0" d="M69.2,88.5l4.2-17h3.8l4.2,17h-3.2L77.5,85h-4.3l-0.7,3.5H69.2z M73.8,82.1h3l-1.5-7L73.8,82.1z"/>
	<path class="st0" d="M82.7,88.5v-17h4.4c3.7,0,5.1,1.7,5.1,4.6v2.1c0,1.7-0.6,3-2.1,3.7l3.5,6.6H90l-3-6.1h-1.1v6.1
		C85.9,88.5,82.7,88.5,82.7,88.5z M85.9,74.2v5.5h1.2c1.2,0,1.8-0.6,1.8-2v-1.4c0-1.4-0.7-2.1-1.8-2.1H85.9z"/>
	<path class="st0" d="M94.8,88.5v-17h4.3c3.1,0,5,1.2,5,4v1.1c0,1.2-0.6,2.1-1.7,2.6c1.6,0.5,2.3,1.5,2.3,3.2v2.2c0,2.7-2,4-5.1,4
		L94.8,88.5L94.8,88.5z M98.1,74v4.4h1c1.3,0,1.8-0.7,1.8-1.9V76c0-1.3-0.5-1.9-1.8-1.9C99.1,74,98.1,74,98.1,74z M98.1,80.7v5.2
		h1.6c1.2,0,1.9-0.6,1.9-2v-1.4c0-1.2-0.7-1.8-1.9-1.8C99.7,80.7,98.1,80.7,98.1,80.7z"/>
	<path class="st0" d="M116.9,75.1v9.7c0,2.5-2,3.9-5.1,3.9c-3.2,0-5.1-1.4-5.1-3.9v-9.7c0-2.5,2-3.9,5.1-3.9
		C115,71.2,116.9,72.7,116.9,75.1 M109.9,75.8v8.4c0,1.3,0.6,1.8,1.9,1.8s1.9-0.5,1.9-1.8v-8.4c0-1.3-0.6-1.8-1.9-1.8
		S109.9,74.5,109.9,75.8"/>
	<path class="st0" d="M119.4,88.5v-17h4.4c3.7,0,5.1,1.7,5.1,4.6v2.1c0,1.7-0.6,3-2.1,3.7l3.5,6.6h-3.6l-3-6.1h-1.1v6.1
		C122.7,88.5,119.4,88.5,119.4,88.5z M122.7,74.2v5.5h1.2c1.2,0,1.8-0.6,1.8-2v-1.4c0-1.4-0.7-2.1-1.8-2.1H122.7z"/>
	<path class="st0" d="M14.3,110.9c1,0,1.7-0.4,1.7-1.5v-2.1h3v2.7c0,2.3-1.9,3.7-4.9,3.7c-2.9,0-4.8-1.3-4.8-3.7V99.8
		c0-2.3,1.9-3.7,4.9-3.7c2.9,0,4.7,1.3,4.7,3.7v2.7H16v-2.1c0-1-0.6-1.5-1.7-1.5c-1.2,0-1.7,0.5-1.7,1.5v8.9
		C12.6,110.4,13.1,110.9,14.3,110.9"/>
	<polygon class="st0" points="30.1,113.4 21.3,113.4 21.3,96.4 30.1,96.4 30.1,99.1 24.6,99.1 24.6,103.3 28.9,103.3 28.9,106.1 
		24.6,106.1 24.6,110.7 30.1,110.7 	"/>
	<path class="st0" d="M32.2,113.4v-17h4.4c3.7,0,5.1,1.7,5.1,4.6v2.1c0,1.7-0.6,3-2.1,3.7l3.5,6.6h-3.6l-3-6.1h-1.1v6.1
		C35.4,113.4,32.2,113.4,32.2,113.4z M35.4,99.1v5.5h1.2c1.2,0,1.8-0.6,1.8-2v-1.4c0-1.4-0.7-2.1-1.8-2.1
		C36.7,99.1,35.4,99.1,35.4,99.1z"/>
	<polygon class="st0" points="46.2,113.4 46.2,99.1 42.9,99.1 42.9,96.4 52.7,96.4 52.7,99.1 49.4,99.1 49.4,113.4 	"/>
	<rect x="54.3" y="96.4" class="st0" width="3.2" height="17"/>
	<polygon class="st0" points="60.2,113.4 60.2,96.4 69,96.4 69,99.1 63.4,99.1 63.4,104 67.7,104 67.7,106.8 63.4,106.8 63.4,113.4 
			"/>
	<rect x="70.7" y="96.4" class="st0" width="3.2" height="17"/>
	<path class="st0" d="M81.3,110.9c1,0,1.7-0.4,1.7-1.5v-2.1h3.1v2.7c0,2.3-1.9,3.7-4.9,3.7c-2.9,0-4.8-1.3-4.8-3.7V99.8
		c0-2.3,1.9-3.7,4.9-3.7c2.9,0,4.7,1.3,4.7,3.7v2.7h-3v-2.1c0-1-0.6-1.5-1.7-1.5c-1.2,0-1.7,0.5-1.7,1.5v8.9
		C79.6,110.4,80.2,110.9,81.3,110.9"/>
	<path class="st0" d="M86.8,113.4l4.2-17h3.8l4.2,17h-3.2l-0.8-3.5h-4.3l-0.7,3.5C90.1,113.4,86.8,113.4,86.8,113.4z M91.4,107h3
		l-1.5-7L91.4,107z"/>
	<polygon class="st0" points="101.6,113.4 101.6,99.1 98.3,99.1 98.3,96.4 108.1,96.4 108.1,99.1 104.8,99.1 104.8,113.4 	"/>
	<rect x="109.7" y="96.4" class="st0" width="3.2" height="17"/>
	<path class="st0" d="M125.6,100.1v9.7c0,2.5-2,3.9-5.1,3.9c-3.2,0-5.1-1.4-5.1-3.9v-9.7c0-2.5,2-3.9,5.1-3.9
		C123.7,96.1,125.6,97.6,125.6,100.1 M118.6,100.7v8.4c0,1.3,0.6,1.8,1.9,1.8s1.9-0.5,1.9-1.8v-8.4c0-1.3-0.6-1.8-1.9-1.8
		C119.2,98.9,118.6,99.4,118.6,100.7"/>
	<polygon class="st0" points="128.1,113.4 128.1,96.4 130.8,96.4 135.7,106 136.2,107.3 136.2,105.9 136.2,96.4 139,96.4 139,113.4 
		136.4,113.4 131.5,103.9 130.9,102.4 131,103.8 131,113.4 	"/>
	<path class="st1" d="M147.5,2.1h100.8c0,0.3,0,0.6,0,0.9c0,23.3,0,46.6,0,70c0,5.9-0.9,11.7-3.6,17c-2.3,4.6-5.6,8.5-9.5,11.9
		c-5.2,4.5-11,8.2-16.8,11.8c-6.5,4-13,8-19.5,12.1c-0.7,0.5-1.2,0.4-1.9,0c-8.6-5.4-17.3-10.7-25.9-16.2c-4.7-3-9.1-6.3-13.1-10.3
		c-6.4-6.4-9.8-14-10.3-23c-0.1-1.5-0.1-3-0.1-4.5c0-22.9,0-45.7,0-68.6L147.5,2.1L147.5,2.1z M151.4,6v1.2c0,21.7,0,43.3,0,65
		c0,1.3,0.1,2.7,0.1,4c0.4,8.1,3.6,14.9,9.3,20.6c3.4,3.4,7.1,6.3,11.2,8.8c8.4,5.4,16.9,10.6,25.4,15.9c0.2,0.1,0.7,0.1,0.9-0.1
		c5.3-3.2,10.5-6.5,15.8-9.7c5.9-3.6,11.7-7.2,17.1-11.6c3.9-3.2,7.3-6.8,9.7-11.4c2.6-5,3.5-10.3,3.5-15.8c0-22,0-44,0-66
		c0-0.3,0-0.6,0-0.9L151.4,6L151.4,6z"/>
	<path class="st0" d="M151.4,6h92.9c0,0.3,0,0.6,0,0.9c0,22,0,44,0,66c0,5.5-0.9,10.9-3.5,15.8c-2.4,4.5-5.8,8.1-9.7,11.4
		c-5.3,4.4-11.2,8-17.1,11.6c-5.3,3.2-10.5,6.5-15.8,9.7c-0.2,0.1-0.7,0.2-0.9,0.1c-8.5-5.3-17-10.5-25.4-15.9
		c-4-2.6-7.8-5.5-11.2-8.8c-5.7-5.7-8.9-12.5-9.3-20.6c-0.1-1.3-0.1-2.7-0.1-4c0-21.7,0-43.3,0-65L151.4,6L151.4,6z"/>
	<path class="st2" d="M170.7,94.8c0.4,0.2,0.9,0.3,1.4,0.3c0.6,0,1-0.1,1.4-0.3c0.4-0.2,0.6-0.6,0.6-1v-5.9h2.5c2,0,3.5-0.5,4.6-1.5
		c1.2-1,1.8-2.6,1.8-4.8v-0.1c0-2.2-0.6-3.8-1.6-4.8c-1.1-1-2.6-1.5-4.5-1.5h-5.4c-0.4,0-0.8,0.1-1.1,0.4c-0.3,0.2-0.4,0.5-0.4,0.9
		V94C170.1,94.2,170.3,94.6,170.7,94.8 M174.2,78.8h2.5c1.6,0,2.4,0.9,2.4,2.7v0.3c0,1.9-0.8,2.7-2.4,2.7h-2.5V78.8z"/>
	<path class="st2" d="M185.4,94.8c0.4,0.2,0.9,0.3,1.4,0.3s1-0.1,1.4-0.3c0.4-0.2,0.6-0.5,0.6-1v-6.7h1.7l3.6,7.4
		c0.3,0.5,0.7,0.8,1.3,0.8s1.2-0.2,1.8-0.7c0.5-0.5,0.8-1,0.8-1.5c0-0.2,0-0.3-0.1-0.5l-3.1-6.1c2.1-0.8,3.1-2.7,3.1-5.5
		c0-4-2.2-5.9-6.4-5.9h-5.4c-0.4,0-0.7,0.1-0.9,0.4c-0.2,0.2-0.3,0.6-0.3,0.9v17.5C184.9,94.2,185,94.6,185.4,94.8 M188.9,78.8h2.6
		c0.8,0,1.3,0.2,1.8,0.6c0.4,0.4,0.6,1,0.6,1.9s-0.2,1.5-0.6,1.9c-0.4,0.4-1,0.6-1.8,0.6h-2.6V78.8z"/>
	<path class="st2" d="M200.5,94.8c0.4,0.2,0.9,0.3,1.4,0.3c0.6,0,1-0.1,1.4-0.3c0.4-0.2,0.6-0.5,0.6-1V76.3c0-0.4-0.2-0.7-0.6-0.9
		c-0.4-0.2-0.8-0.3-1.4-0.3c-0.6,0-1,0.1-1.4,0.3c-0.4,0.2-0.6,0.5-0.6,0.9v17.5C199.9,94.2,200.1,94.6,200.5,94.8"/>
	<path class="st2" d="M205.5,77.1l4.8,16.8c0.2,0.5,0.5,0.8,1,1.1c0.5,0.2,1,0.3,1.6,0.3c0.7,0,1.2-0.1,1.7-0.3
		c0.5-0.3,0.8-0.6,1-1.1l4.8-16.8c0-0.2,0.1-0.2,0.1-0.3c0-0.5-0.3-0.9-0.9-1.3c-0.5-0.3-1.1-0.5-1.7-0.5c-0.8,0-1.2,0.2-1.3,0.8
		L213,89.9l-3.6-14.1c-0.1-0.6-0.6-0.8-1.3-0.8c-0.6,0-1.2,0.2-1.8,0.5s-0.8,0.8-0.8,1.3C205.4,76.9,205.4,76.9,205.5,77.1"/>
	<path class="st2" d="M222.7,93.7c1.1,1,2.7,1.5,4.6,1.5c1.9,0,3.5-0.5,4.6-1.5c1.2-1,1.8-2.7,1.8-4.9v-7.3c0-2.3-0.6-3.9-1.8-5
		c-1.1-1-2.7-1.5-4.6-1.5c-1.9,0-3.5,0.5-4.6,1.5s-1.7,2.7-1.7,5v7.3C221,91,221.6,92.7,222.7,93.7 M225,81.5c0-1.8,0.8-2.8,2.3-2.8
		s2.3,0.9,2.3,2.8v7.3c0,1.8-0.7,2.8-2.3,2.8c-1.5,0-2.3-0.9-2.3-2.8V81.5z"/>
	<path class="st3" d="M234.8,73.4c0.2,0,0.4,0.1,0.6,0.2c0.2,0.1,0.3,0.3,0.4,0.5c0.1,0.2,0.2,0.4,0.2,0.6s-0.1,0.4-0.2,0.6
		c-0.1,0.2-0.2,0.4-0.4,0.5S235,76,234.8,76c-0.2,0-0.4-0.1-0.6-0.2c-0.2-0.1-0.3-0.3-0.4-0.5c-0.1-0.2-0.2-0.4-0.2-0.6
		s0.1-0.4,0.2-0.6c0.1-0.2,0.3-0.4,0.4-0.5C234.4,73.5,234.6,73.4,234.8,73.4 M234.8,73.7c-0.2,0-0.3,0-0.5,0.1
		c-0.1,0.1-0.3,0.2-0.4,0.4c-0.1,0.2-0.1,0.3-0.1,0.5s0,0.3,0.1,0.5s0.2,0.3,0.3,0.4s0.3,0.1,0.5,0.1s0.3,0,0.5-0.1
		c0.1-0.1,0.3-0.2,0.4-0.4c0.1-0.2,0.1-0.3,0.1-0.5s0-0.3-0.1-0.5s-0.2-0.3-0.4-0.4C235.1,73.7,235,73.7,234.8,73.7 M234.3,75.3V74
		h0.3c0.2,0,0.4,0,0.4,0c0.1,0,0.1,0,0.2,0.1l0.1,0.1c0,0.1,0,0.1,0,0.2s0,0.2-0.1,0.2c-0.1,0.1-0.1,0.1-0.2,0.1c0,0,0.1,0,0.1,0.1
		c0,0,0,0.1,0.1,0.1c0,0,0,0.1,0.1,0.2l0.1,0.3h-0.3l-0.1-0.2c-0.1-0.1-0.1-0.2-0.2-0.3c0,0-0.1-0.1-0.2-0.1h-0.1v0.5L234.3,75.3
		L234.3,75.3z M234.5,74.6h0.1c0.1,0,0.2,0,0.3,0c0,0,0.1,0,0.1-0.1v-0.1v-0.1c0,0,0-0.1-0.1-0.1s-0.1,0-0.3,0h-0.1V74.6z"/>
	<path class="st4" d="M156.9,85.5V75.4h2.1c1.4,0,2.3,0.7,2.3,2.2v0.5c0,1-0.5,1.6-1.2,1.8c1,0.2,1.6,0.9,1.6,2.2v0.7
		c0,1.8-1,2.6-2.6,2.6L156.9,85.5L156.9,85.5z M157.5,76v3.8h1.5c1,0,1.7-0.5,1.7-1.6v-0.4c0-1.2-0.7-1.7-1.7-1.7
		C159,76,157.5,76,157.5,76z M157.5,80.3v4.6h1.6c1.2,0,2-0.7,2-2v-0.7c0-1.3-0.8-1.8-2-1.8L157.5,80.3L157.5,80.3z"/>
	<polygon class="st4" points="164.2,85.5 164.2,81.7 161.7,75.4 162.3,75.4 164.5,81 166.6,75.4 167.3,75.4 164.8,81.7 164.8,85.5 	
		"/>
	<path class="st0" d="M21.4,47.2c2.5,0,4-1.1,4-3.6v-5h7.3V45c0,5.6-4.6,8.8-11.7,8.8c-7,0-11.4-3.2-11.4-8.8V20.9
		c0-5.6,4.6-8.8,11.8-8.8c6.9,0,11.3,3.2,11.3,8.8v6.4h-7.3v-5c0-2.5-1.5-3.6-4-3.6c-2.8,0-4,1.1-4,3.6v21.3
		C17.3,46.1,18.6,47.2,21.4,47.2"/>
	<path class="st0" d="M60.2,21.5v23c0,5.9-4.7,9.3-12.2,9.3s-12.2-3.4-12.2-9.3v-23c0-5.9,4.7-9.3,12.2-9.3
		C55.5,12.1,60.2,15.6,60.2,21.5 M43.5,23v19.9c0,3,1.4,4.3,4.5,4.3c3,0,4.5-1.2,4.5-4.3V23c0-3-1.5-4.3-4.5-4.3
		C44.9,18.7,43.5,19.9,43.5,23"/>
	<path class="st0" d="M64.3,53.2V12.7h11.4c8.8,0,12.2,4.1,12.2,11v5c0,6.2-3.3,10-12.2,10H72v14.5H64.3z M72,19.2v13h3.8
		c2.8,0,4.3-1.5,4.3-4.8v-3.3c0-3.4-1.6-5-4.3-5C75.9,19.2,72,19.2,72,19.2z"/>
	<path class="st0" d="M90.5,53.2V12.7h11.4c8.8,0,12.2,4.1,12.2,11v5c0,6.2-3.3,10-12.2,10h-3.7v14.5H90.5z M98.2,19.2v13h3.8
		c2.8,0,4.3-1.5,4.3-4.8v-3.3c0-3.4-1.6-5-4.3-5C102.1,19.2,98.2,19.2,98.2,19.2z"/>
	<path class="st0" d="M111.7,53.2l10-40.5h9.1l9.9,40.5H133l-1.8-8.2h-10.1l-1.7,8.2H111.7z M122.6,38h7.1l-3.5-16.5L122.6,38z"/>
	<polygon class="st5" points="158.7,29.8 158.7,13.7 161.8,13.7 161.8,21 165.4,13.7 168.6,13.7 164.7,21.6 168.9,29.8 165.5,29.8 
		161.8,22.4 161.8,29.8 	"/>
	<path class="st5" d="M169.8,13.1h3.2v3.2h-3.2V13.1z M169.9,17.8h3v12.1h-3V17.8z"/>
	<path class="st5" d="M175.2,13.7h4.5c3.8,0,5.3,1.9,5.3,5.2v5.6c0,3.6-1.5,5.2-5.3,5.2h-4.5V13.7L175.2,13.7z M178.3,16.3v10.9h1.5
		c1.5,0,2.4-0.9,2.4-2.8v-5.3c0-1.9-0.9-2.8-2.4-2.8C179.7,16.3,178.3,16.3,178.3,16.3z"/>
	<path class="st5" d="M195.9,25.6c0,3.2-1.5,4.4-4.2,4.4h-0.9c-2.6,0-4-0.9-4-3.3v-2.1h2.9v1.2c0,1.4,0.4,1.6,1.2,1.6h0.7
		c0.8,0,1.3-0.2,1.3-1.7v-1.1c0-0.8-0.3-1.3-1.3-1.5l-1.5-0.4c-2.2-0.5-3.2-1.6-3.2-4.5v-0.8c0-2.7,1.5-4,4.1-4h0.3
		c2.5,0,4.1,1.2,4.1,3.3v1.7h-2.9v-0.9c0-1.1-0.3-1.4-1.2-1.4H191c-0.8,0-1.1,0.4-1.1,1.7v0.5c0,1.2,0.2,1.5,1.1,1.8l1.3,0.3
		c2.8,0.7,3.5,1.7,3.5,4.5L195.9,25.6L195.9,25.6z"/>
	<path class="st5" d="M158.7,49.7V33.6h4.5c3.5,0,4.8,1.6,4.8,4.4v2c0,2.5-1.3,4-4.8,4h-1.5v5.8L158.7,49.7L158.7,49.7z M161.8,36.1
		v5.2h1.5c1.1,0,1.7-0.6,1.7-1.9v-1.3c0-1.3-0.6-2-1.7-2H161.8z"/>
	<path class="st5" d="M169.9,49.7V33.6h4.2c3.5,0,4.8,1.6,4.8,4.4v2c0,1.6-0.6,2.8-2,3.5l3.3,6.3h-3.4L174,44h-1v5.8L169.9,49.7
		L169.9,49.7z M172.9,36.1v5.2h1.2c1.1,0,1.7-0.6,1.7-1.9v-1.3c0-1.3-0.6-2-1.7-2C174.1,36.1,172.9,36.1,172.9,36.1z"/>
	<rect x="181.4" y="33.6" class="st5" width="3.1" height="16.1"/>
	<polygon class="st5" points="196.7,33.6 192.9,49.7 189.6,49.7 185.9,33.6 188.9,33.6 191.3,45.9 193.7,33.6 	"/>
	<path class="st5" d="M196.2,49.7l4-16.1h3.6l3.9,16.1h-3l-0.7-3.3h-4l-0.7,3.3C199.3,49.7,196.2,49.7,196.2,49.7z M200.5,43.6h2.8
		l-1.4-6.6L200.5,43.6z"/>
	<path class="st5" d="M213.3,47.3c1,0,1.6-0.4,1.6-1.4v-2h2.9v2.6c0,2.2-1.8,3.5-4.7,3.5c-2.8,0-4.5-1.3-4.5-3.5v-9.6
		c0-2.2,1.8-3.5,4.7-3.5c2.7,0,4.5,1.3,4.5,3.5v2.6h-2.9v-2c0-1-0.6-1.4-1.6-1.4c-1.1,0-1.6,0.4-1.6,1.4V46
		C211.7,46.8,212.2,47.3,213.3,47.3"/>
	<polygon class="st5" points="222.4,49.7 222.4,44.1 218.4,33.6 221.6,33.6 223.9,40.8 226.2,33.6 229.4,33.6 225.4,44 225.4,49.7 	
		"/>
	<path class="st5" d="M157.4,69.5l4-16.1h3.6l3.9,16.1h-3l-0.7-3.3h-4l-0.7,3.3H157.4z M161.7,63.4h2.8l-1.4-6.6L161.7,63.4z"/>
	<path class="st5" d="M178.7,65.3c0,3.2-1.5,4.4-4.2,4.4h-0.9c-2.6,0-4-0.9-4-3.3v-2.1h2.9v1.2c0,1.4,0.4,1.6,1.2,1.6h0.7
		c0.8,0,1.3-0.2,1.3-1.7v-1.1c0-0.8-0.3-1.3-1.3-1.5l-1.5-0.4c-2.2-0.5-3.2-1.6-3.2-4.5v-0.8c0-2.7,1.5-4,4.1-4h0.3
		c2.5,0,4.1,1.2,4.1,3.3v1.7h-2.9v-0.9c0-1.1-0.3-1.4-1.2-1.4h-0.3c-0.8,0-1.1,0.4-1.1,1.7V58c0,1.2,0.2,1.5,1.1,1.8l1.3,0.3
		c2.8,0.7,3.5,1.7,3.5,4.5L178.7,65.3L178.7,65.3z"/>
	<path class="st5" d="M189.3,65.3c0,3.2-1.5,4.4-4.2,4.4h-0.9c-2.6,0-4-0.9-4-3.3v-2.1h2.9v1.2c0,1.4,0.4,1.6,1.2,1.6h0.7
		c0.8,0,1.3-0.2,1.3-1.7v-1.1c0-0.8-0.3-1.3-1.3-1.5l-1.5-0.4c-2.2-0.5-3.2-1.6-3.2-4.5v-0.8c0-2.7,1.5-4,4.1-4h0.3
		c2.5,0,4.1,1.2,4.1,3.3v1.7h-2.9v-0.9c0-1.1-0.3-1.4-1.2-1.4h-0.3c-0.8,0-1.1,0.4-1.1,1.7V58c0,1.2,0.2,1.5,1.1,1.8l1.3,0.3
		c2.8,0.7,3.5,1.7,3.5,4.5L189.3,65.3L189.3,65.3z"/>
	<path class="st5" d="M200.8,53.4v12.1c0,2.6-1.9,4.2-4.8,4.2c-3,0-4.9-1.6-4.9-4.2V53.4h3v11.5c0,1.4,0.6,2,1.8,2s1.8-0.6,1.8-2
		V53.4H200.8z"/>
	<path class="st5" d="M203.3,69.5V53.4h4.2c3.5,0,4.8,1.6,4.8,4.4v2c0,1.6-0.6,2.8-2,3.5l3.3,6.3h-3.4l-2.8-5.8h-1v5.8h-3.1V69.5z
		 M206.3,56v5.2h1.2c1.1,0,1.7-0.6,1.7-1.9V58c0-1.3-0.6-2-1.7-2H206.3z"/>
	<polygon class="st5" points="223.1,69.5 214.7,69.5 214.7,53.4 223.1,53.4 223.1,56 217.8,56 217.8,59.9 221.9,59.9 221.9,62.5 
		217.8,62.5 217.8,66.9 223.1,66.9 	"/>
	<path class="st5" d="M225,53.4h4.5c3.8,0,5.3,1.9,5.3,5.2v5.6c0,3.6-1.5,5.2-5.3,5.2H225V53.4L225,53.4z M228.1,56v10.9h1.5
		c1.5,0,2.4-0.9,2.4-2.8v-5.3c0-1.9-0.9-2.8-2.4-2.8H228.1L228.1,56z"/>
	<rect x="1.6" y="62.8" class="st0" width="150.3" height="1.5"/>
</g>
</svg>
